<mxfile host="65bd71144e">
    <diagram id="eiFy_w4ZVVoI0RKRJY7V" name="第 1 页">
        <mxGraphModel dx="1018" dy="456" grid="1" gridSize="10" guides="1" tooltips="1" connect="1" arrows="1" fold="1" page="1" pageScale="1" pageWidth="827" pageHeight="1169" math="0" shadow="0">
            <root>
                <mxCell id="0"/>
                <mxCell id="1" parent="0"/>
                <mxCell id="2" value="ECstack" style="swimlane;" vertex="1" parent="1">
                    <mxGeometry x="80" y="40" width="200" height="330" as="geometry"/>
                </mxCell>
                <mxCell id="3" value="Vo(variable Object):GO" style="shape=process;whiteSpace=wrap;html=1;backgroundOutline=1;" vertex="1" parent="2">
                    <mxGeometry x="40" y="180" width="130" height="60" as="geometry"/>
                </mxCell>
                <mxCell id="4" value="开始执行代码&lt;br&gt;" style="shape=process;whiteSpace=wrap;html=1;backgroundOutline=1;" vertex="1" parent="2">
                    <mxGeometry x="40" y="240" width="130" height="60" as="geometry"/>
                </mxCell>
                <mxCell id="9" value="GEC (global exection context)" style="text;html=1;align=center;verticalAlign=middle;resizable=0;points=[];autosize=1;strokeColor=none;fillColor=none;" vertex="1" parent="2">
                    <mxGeometry x="10" y="150" width="170" height="20" as="geometry"/>
                </mxCell>
                <mxCell id="8" value="可执行栈" style="text;html=1;align=center;verticalAlign=middle;resizable=0;points=[];autosize=1;strokeColor=none;fillColor=none;" vertex="1" parent="1">
                    <mxGeometry x="160" y="10" width="60" height="20" as="geometry"/>
                </mxCell>
                <mxCell id="10" value="可执行上下文" style="text;html=1;align=center;verticalAlign=middle;resizable=0;points=[];autosize=1;strokeColor=none;fillColor=none;" vertex="1" parent="1">
                    <mxGeometry x="115" y="170" width="90" height="20" as="geometry"/>
                </mxCell>
            </root>
        </mxGraphModel>
    </diagram>
</mxfile>